<svg xmlns="http://www.w3.org/2000/svg" viewBox="0 0 128 128" role="img" aria-labelledby="title">
  <title id="title">Den marketplace icon</title>
  <defs>
    <linearGradient id="den-bg" x1="0" y1="0" x2="0" y2="128" gradientUnits="userSpaceOnUse">
      <stop offset="0" stop-color="#2c2117"/>
      <stop offset="1" stop-color="#15100a"/>
    </linearGradient>
  </defs>
  <rect width="128" height="128" rx="27" fill="url(#den-bg)"/>
  <path d="M 48.527344 16.839844 C 44.136994 16.864101 39.924006 17.783926 36.089844 19.796875 C 30.24731 22.864226 25.373491 30.470663 26.810547 38.039062 A 8.75 8.75 0 0 0 37.039062 45.001953 A 8.75 8.75 0 0 0 44.019531 35.339844 C 44.095511 35.316104 44.112071 35.349046 44.222656 35.291016 C 45.378297 34.6843 48.645797 34.017983 52.253906 34.701172 C 54.810171 35.202492 56.078035 36.271581 58.126953 39.845703 C 60.181186 43.429096 62.102472 49.207532 64.150391 55.800781 A 8.750875 8.750875 0 0 0 64.195312 55.941406 C 64.28445 56.212309 64.382702 56.483046 64.472656 56.753906 C 59.10915 68.648063 51.263467 84.943907 40.828125 96.787109 A 8.5 8.5 0 0 0 41.585938 108.7832 A 8.5 8.5 0 0 0 53.583984 108.02539 C 61.552027 98.982358 67.827856 88.530976 72.746094 78.992188 C 76.269363 87.602285 80.24808 96.522033 84.794922 106.14453 A 8.75 8.75 0 0 0 96.445312 110.31836 A 8.75 8.75 0 0 0 100.61719 98.667969 C 92.109533 80.663195 85.769879 65.519143 80.818359 50.470703 C 78.781748 43.909276 76.806379 37.240689 73.310547 31.142578 C 69.78978 25.000971 63.806554 19.118006 55.576172 17.517578 A 8.750875 8.750875 0 0 0 55.542969 17.509766 C 53.821692 17.181903 52.110077 16.969633 50.419922 16.882812 C 49.786113 16.850255 49.154537 16.836378 48.527344 16.839844 z" fill="#f0a73c"/>
</svg>
