<svg xmlns="http://www.w3.org/2000/svg" viewBox="0 0 128 128" role="img" aria-label="LionAGI">
  <path fill="#E8A33D" d="M48.527 16.84c-4.39.024-8.603.944-12.437 2.957-5.843 3.067-10.717 10.674-9.28 18.242a8.75 8.75 0 0 0 10.229 6.963 8.75 8.75 0 0 0 6.98-9.663c.076-.023.093.01.204-.048 1.155-.607 4.423-1.273 8.03-.59 2.557.501 3.825 1.57 5.874 5.145 2.054 3.583 3.975 9.361 6.023 15.955l.045.14c.09.271.188.542.278.813-5.364 11.894-13.21 28.19-23.645 40.033a8.5 8.5 0 0 0 .758 11.996 8.5 8.5 0 0 0 11.998-.758c7.968-9.043 14.243-19.494 19.162-29.033 3.523 8.61 7.502 17.53 12.049 27.152a8.75 8.75 0 0 0 11.65 4.174 8.75 8.75 0 0 0 4.172-11.65c-8.508-18.005-14.847-33.149-19.799-48.197-2.036-6.562-4.012-13.23-7.508-19.328-3.52-6.142-9.504-12.025-17.734-13.625l-.033-.008a29.855 29.855 0 0 0-5.123-.627 31.1 31.1 0 0 0-1.893-.043z"/>
</svg>
